<?xml version="1.0" encoding="utf-8"?>
<svg version="1.1" id="svg-pyddns-logo" xmlns="http://www.w3.org/2000/svg" xmlns:xlink="http://www.w3.org/1999/xlink" x="0px" y="0px"
	 viewBox="0 0 1000 500" style="enable-background:new 0 0 1000 500;" xml:space="preserve">
	<style type="text/css">
		.svg-color-blue{
			fill:#1A7DC2;
		}
	</style>
	<g id="svg-object-text">
		<g>
			<g>
				<path class="svg-color-blue" d="M32.28,442.31c-3.52,0-6.48-1.2-8.87-3.61s-3.6-5.37-3.6-8.89V267.1c0-3.68,1.2-6.69,3.6-9.01
					c2.4-2.32,5.35-3.49,8.87-3.49h47.97c11.99,0,22.62,2.64,31.9,7.93c9.27,5.29,16.51,12.62,21.7,21.99
					c5.19,9.37,7.79,20.15,7.79,32.33c0,11.7-2.6,22.11-7.79,31.25c-5.2,9.13-12.44,16.27-21.7,21.39
					c-9.28,5.13-19.91,7.69-31.9,7.69h-35.5v52.64c0,3.53-1.16,6.49-3.48,8.89C38.96,441.11,35.96,442.31,32.28,442.31z M44.75,354.1
					h35.5c7.35,0,13.83-1.6,19.43-4.81c5.59-3.2,9.99-7.61,13.19-13.22c3.2-5.61,4.8-12.02,4.8-19.23c0-7.69-1.6-14.46-4.8-20.31
					c-3.2-5.85-7.6-10.46-13.19-13.82c-5.6-3.36-12.08-5.05-19.43-5.05h-35.5V354.1z"/>
				<path class="svg-color-blue" d="M218.63,437.03c-3.04,1.29-5.88,1.41-8.51,0.36c-2.64-1.04-4.76-3.08-6.36-6.13L148.84,326.7
					c-1.6-3.04-1.8-5.97-0.6-8.77c1.2-2.8,3.32-4.84,6.36-6.13c3.03-1.28,5.91-1.4,8.63-0.36c2.72,1.05,4.8,3.09,6.24,6.13
					l52.52,104.55c1.59,3.05,2.19,5.97,1.8,8.77C223.39,433.7,221.67,435.75,218.63,437.03z M190.33,500c-1.6,0-3.52-0.48-5.76-1.44
					c-7.04-3.21-8.96-8.26-5.76-15.14l73.15-165.61c3.2-6.73,8.23-8.65,15.11-5.77c7.2,3.05,9.19,8.09,6,15.14l-73.39,165.36
					C197.77,497.52,194.65,500,190.33,500z"/>
				<path class="svg-color-blue" d="M310.96,442.31c-3.52,0-6.48-1.2-8.87-3.61c-2.4-2.4-3.6-5.37-3.6-8.89V267.1c0-3.68,1.2-6.69,3.6-9.01
					c2.4-2.32,5.35-3.49,8.87-3.49h43.41c13.75,0,26.26,2.28,37.53,6.85c11.27,4.57,21.06,11.06,29.38,19.47
					c8.31,8.41,14.71,18.31,19.19,29.68c4.47,11.38,6.72,23.96,6.72,37.74c0,13.78-2.24,26.4-6.72,37.86
					c-4.48,11.46-10.88,21.39-19.19,29.8c-8.32,8.41-18.11,14.9-29.38,19.47c-11.27,4.57-23.79,6.85-37.53,6.85L310.96,442.31
					L310.96,442.31z M323.43,420.2h30.94c13.43,0,25.3-3.08,35.62-9.25c10.31-6.17,18.43-14.66,24.34-25.48
					c5.91-10.82,8.87-23.19,8.87-37.13c0-14.1-2.96-26.52-8.87-37.26c-5.92-10.73-14.03-19.14-24.34-25.24
					c-10.31-6.09-22.18-9.13-35.62-9.13h-30.94V420.2z"/>
				<path class="svg-color-blue" d="M498.75,442.31c-3.52,0-6.48-1.2-8.87-3.61s-3.6-5.37-3.6-8.89V267.1c0-3.68,1.2-6.69,3.6-9.01
					c2.4-2.32,5.35-3.49,8.87-3.49h43.41c13.75,0,26.26,2.28,37.53,6.85c11.27,4.57,21.06,11.06,29.38,19.47
					c8.31,8.41,14.71,18.31,19.19,29.68c4.47,11.38,6.72,23.96,6.72,37.74c0,13.78-2.24,26.4-6.72,37.86
					c-4.48,11.46-10.88,21.39-19.19,29.8c-8.32,8.41-18.11,14.9-29.38,19.47c-11.27,4.57-23.79,6.85-37.53,6.85L498.75,442.31
					L498.75,442.31z M511.22,420.2h30.94c13.43,0,25.3-3.08,35.62-9.25c10.31-6.17,18.43-14.66,24.34-25.48
					c5.91-10.82,8.87-23.19,8.87-37.13c0-14.1-2.96-26.52-8.87-37.26c-5.92-10.73-14.03-19.14-24.34-25.24
					c-10.31-6.09-22.18-9.13-35.62-9.13h-30.94L511.22,420.2L511.22,420.2z"/>
				<path class="svg-color-blue" d="M686.3,442.31c-3.52,0-6.44-1.2-8.75-3.61c-2.32-2.4-3.48-5.37-3.48-8.89V267.1c0-3.68,1.16-6.69,3.48-9.01
					c2.31-2.32,5.23-3.49,8.75-3.49c3.84,0,7.03,1.53,9.59,4.57l104.57,139.41V267.1c0-3.68,1.2-6.69,3.6-9.01
					c2.4-2.32,5.35-3.49,8.87-3.49c3.68,0,6.63,1.17,8.87,3.49c2.24,2.33,3.36,5.33,3.36,9.01v162.72c0,3.53-1.12,6.49-3.36,8.89
					c-2.24,2.4-5.2,3.61-8.87,3.61c-1.6,0-3.32-0.36-5.16-1.08c-1.84-0.72-3.32-1.8-4.44-3.24L698.77,298.58v131.23
					c0,3.53-1.16,6.49-3.48,8.89C692.97,441.11,689.97,442.31,686.3,442.31z"/>
				<path class="svg-color-blue" d="M932.61,444.72c-10.23,0-19.99-1.6-29.26-4.81c-9.28-3.2-17.35-7.69-24.22-13.46
					c-6.88-5.77-11.91-12.41-15.11-19.95c-1.6-3.36-1.56-6.49,0.12-9.37c1.68-2.88,4.51-4.72,8.51-5.53c2.88-0.64,5.71-0.2,8.51,1.32
					c2.79,1.53,4.92,3.81,6.36,6.85c1.92,4.01,5.07,7.69,9.47,11.06c4.39,3.36,9.71,6.09,15.95,8.17c6.24,2.09,12.79,3.12,19.67,3.12
					c7.67,0,14.75-1.2,21.23-3.61c6.48-2.4,11.71-5.89,15.71-10.46c3.99-4.57,6-10.22,6-16.95c0-8.49-3.32-16.1-9.95-22.83
					c-6.64-6.73-17.55-10.89-32.74-12.5c-19.83-1.92-35.42-7.77-46.77-17.55c-11.36-9.77-17.03-21.87-17.03-36.29
					c0-10.58,2.96-19.55,8.87-26.92c5.91-7.37,13.95-12.98,24.1-16.82c10.15-3.85,21.47-5.77,33.94-5.77
					c9.75,0,18.26,1.36,25.54,4.09c7.27,2.73,13.63,6.49,19.07,11.3c5.43,4.81,10.15,10.5,14.15,17.07c2.24,3.53,3.15,6.85,2.76,9.97
					c-0.4,3.12-1.96,5.57-4.68,7.33c-3.04,1.92-6.32,2.33-9.83,1.2c-3.52-1.12-6.16-3.2-7.91-6.25c-2.56-4.64-5.68-8.57-9.35-11.78
					c-3.68-3.2-8-5.73-12.95-7.57c-4.96-1.84-10.79-2.76-17.51-2.76c-11.84-0.16-21.75,2.04-29.74,6.61
					c-8,4.57-11.99,11.58-11.99,21.03c0,4.81,1.24,9.42,3.72,13.82c2.48,4.41,7.03,8.21,13.67,11.42c6.63,3.21,16.19,5.45,28.66,6.73
					c19.02,1.92,33.85,7.73,44.49,17.43c10.63,9.7,15.95,22.47,15.95,38.34c0,9.13-1.88,17.07-5.64,23.8
					c-3.76,6.73-8.8,12.38-15.11,16.95c-6.32,4.57-13.51,7.97-21.59,10.22C949.59,443.59,941.24,444.72,932.61,444.72z"/>
			</g>
		</g>
	</g>
	<g id="svg-object-cloud">
		<path class="svg-color-blue" d="M294.58,231.88H272.9c-6.63,0-11.99-5.38-11.99-12.02c0-6.64,5.37-12.02,11.99-12.02h21.68
			c26.09,0,47.31-21.27,47.31-47.42s-21.23-47.42-47.31-47.42c-4.1,0-8.16,0.52-12.09,1.56c-3.51,0.93-7.25,0.21-10.17-1.95
			c-2.92-2.16-4.71-5.53-4.86-9.17c-0.89-21.4-9.88-41.39-25.32-56.27c-15.49-14.93-35.85-23.15-57.34-23.15
			c-37.97,0-70.95,25.72-80.22,62.56c-1.55,6.14-7.57,10.02-13.79,8.88c-3.37-0.62-6.82-0.93-10.26-0.93
			c-31.17,0-56.53,25.41-56.53,56.65s25.36,56.65,56.53,56.65h16.35c6.63,0,11.99,5.38,11.99,12.02c0,6.64-5.37,12.02-11.99,12.02
			H80.51C36.12,231.88,0,195.69,0,151.2s36.12-80.69,80.51-80.69c1.29,0,2.58,0.03,3.87,0.1C99.48,28.55,139.38,0,184.79,0
			c27.72,0,53.99,10.61,73.97,29.86c16.67,16.07,27.51,36.76,31.27,59.27c1.51-0.1,3.03-0.14,4.54-0.14
			c39.31,0,71.3,32.05,71.3,71.45C365.87,199.83,333.88,231.88,294.58,231.88z"/>
	</g>
	<g id="svg-object-arrow-down">
		<path class="svg-color-blue" d="M246.47,245.33c-4.1-4.11-10.74-4.1-14.84,0l-6.79,6.8v-50.08c0-5.81-4.69-10.52-10.49-10.52
			c-5.8,0-10.49,4.7-10.49,10.52v51.11l-6.79-6.8c-4.1-4.1-10.74-4.1-14.84,0c-4.1,4.1-4.1,10.77,0,14.87l24.19,24.24
			c2.05,2.06,4.74,3.08,7.42,3.08c2.69,0,5.37-1.03,7.42-3.08l25.22-25.27C250.57,256.09,250.57,249.43,246.47,245.33z"/>
	</g>
	<g id="svg-object-arrow-up">
		<path class="svg-color-blue" d="M184.06,176.68l-24.19-24.24c-1.97-1.97-4.63-3.08-7.42-3.08c-2.78,0-5.45,1.11-7.42,3.08l-25.22,25.27
			c-4.1,4.1-4.1,10.76,0,14.87c2.05,2.06,4.74,3.08,7.42,3.08c2.69,0,5.37-1.03,7.42-3.08l6.79-6.8v50.08
			c0,5.81,4.69,10.52,10.49,10.52c5.8,0,10.49-4.7,10.49-10.52v-51.11l6.79,6.8c4.1,4.1,10.74,4.1,14.84,0
			C188.16,187.45,188.16,180.79,184.06,176.68z"/>
	</g>
</svg>
