<?xml version="1.0" encoding="utf-8"?>
	<svg version="1.1" xmlns="http://www.w3.org/2000/svg" xmlns:xlink="http://www.w3.org/1999/xlink" x="0px" y="0px"
		viewBox="0 0 1920 1080" style="enable-background:new 0 0 1920 1080;" xml:space="preserve">
	<style type="text/css">
		.svg-color-blue{
			fill:#1A7DC2;
		}
	</style>
	<g id="svg-object-text">
		<g>
			<g>
				<path class="svg-color-blue" d="M119.4,869.37c-5.87,0-10.8-2-14.8-6s-6-8.93-6-14.8v-270.8c0-6.13,2-11.13,6-15c4-3.86,8.93-5.8,14.8-5.8
					h80c20,0,37.73,4.4,53.2,13.2c15.46,8.8,27.53,21,36.2,36.6c8.66,15.6,13,33.54,13,53.8c0,19.47-4.34,36.8-13,52
					c-8.67,15.2-20.74,27.07-36.2,35.6c-15.47,8.54-33.2,12.8-53.2,12.8h-59.2v87.6c0,5.87-1.94,10.8-5.8,14.8
					C130.53,867.37,125.53,869.37,119.4,869.37z M140.2,722.57h59.2c12.26,0,23.06-2.66,32.4-8c9.33-5.33,16.66-12.66,22-22
					c5.33-9.33,8-20,8-32c0-12.8-2.67-24.06-8-33.8c-5.34-9.73-12.67-17.4-22-23c-9.34-5.6-20.14-8.4-32.4-8.4h-59.2V722.57z"/>
				<path class="svg-color-blue" d="M430.2,860.57c-5.07,2.14-9.8,2.34-14.2,0.6c-4.4-1.73-7.94-5.13-10.6-10.2l-91.6-174
					c-2.67-5.06-3-9.93-1-14.6c2-4.66,5.53-8.06,10.6-10.2c5.06-2.13,9.86-2.33,14.4-0.6c4.53,1.74,8,5.14,10.4,10.2l87.6,174
					c2.66,5.07,3.66,9.94,3,14.6C438.13,855.04,435.26,858.44,430.2,860.57z M383,965.37c-2.67,0-5.87-0.8-9.6-2.4
					c-11.74-5.34-14.94-13.74-9.6-25.2l122-275.6c5.33-11.2,13.73-14.4,25.2-9.6c12,5.07,15.33,13.47,10,25.2l-122.4,275.2
					C395.4,961.24,390.2,965.37,383,965.37z"/>
				<path class="svg-color-blue" d="M584.19,869.37c-5.87,0-10.8-2-14.8-6s-6-8.93-6-14.8v-270.8c0-6.13,2-11.13,6-15c4-3.86,8.93-5.8,14.8-5.8
					h72.4c22.93,0,43.8,3.8,62.6,11.4s35.13,18.4,49,32.4c13.86,14,24.53,30.47,32,49.4c7.46,18.94,11.2,39.87,11.2,62.8
					c0,22.94-3.74,43.94-11.2,63c-7.47,19.07-18.14,35.6-32,49.6c-13.87,14-30.2,24.8-49,32.4c-18.8,7.6-39.67,11.4-62.6,11.4H584.19
					z M604.99,832.57h51.6c22.4,0,42.2-5.13,59.4-15.4c17.2-10.26,30.73-24.4,40.6-42.4c9.86-18,14.8-38.6,14.8-61.8
					c0-23.46-4.94-44.13-14.8-62c-9.87-17.86-23.4-31.86-40.6-42c-17.2-10.13-37-15.2-59.4-15.2h-51.6V832.57z"/>
				<path class="svg-color-blue" d="M897.39,869.37c-5.87,0-10.8-2-14.8-6s-6-8.93-6-14.8v-270.8c0-6.13,2-11.13,6-15c4-3.86,8.93-5.8,14.8-5.8
					h72.4c22.93,0,43.8,3.8,62.6,11.4s35.13,18.4,49,32.4c13.86,14,24.53,30.47,32,49.4c7.46,18.94,11.2,39.87,11.2,62.8
					c0,22.94-3.74,43.94-11.2,63c-7.47,19.07-18.14,35.6-32,49.6c-13.87,14-30.2,24.8-49,32.4c-18.8,7.6-39.67,11.4-62.6,11.4H897.39
					z M918.19,832.57h51.6c22.4,0,42.2-5.13,59.4-15.4c17.2-10.26,30.73-24.4,40.6-42.4c9.86-18,14.8-38.6,14.8-61.8
					c0-23.46-4.94-44.13-14.8-62c-9.87-17.86-23.4-31.86-40.6-42c-17.2-10.13-37-15.2-59.4-15.2h-51.6V832.57z"/>
				<path class="svg-color-blue" d="M1210.18,869.37c-5.87,0-10.74-2-14.6-6c-3.87-4-5.8-8.93-5.8-14.8v-270.8c0-6.13,1.93-11.13,5.8-15
					c3.86-3.86,8.73-5.8,14.6-5.8c6.4,0,11.73,2.54,16,7.6l174.4,232v-218.8c0-6.13,2-11.13,6-15c4-3.86,8.93-5.8,14.8-5.8
					c6.13,0,11.06,1.94,14.8,5.8c3.73,3.87,5.6,8.87,5.6,15v270.8c0,5.87-1.87,10.8-5.6,14.8c-3.74,4-8.67,6-14.8,6
					c-2.67,0-5.54-0.6-8.6-1.8c-3.07-1.2-5.54-3-7.4-5.4l-174.4-232v218.4c0,5.87-1.94,10.8-5.8,14.8
					C1221.31,867.37,1216.31,869.37,1210.18,869.37z"/>
				<path class="svg-color-blue" d="M1620.98,873.37c-17.07,0-33.34-2.67-48.8-8c-15.47-5.33-28.94-12.8-40.4-22.4
					c-11.47-9.6-19.87-20.66-25.2-33.2c-2.67-5.6-2.6-10.8,0.2-15.6s7.53-7.86,14.2-9.2c4.8-1.06,9.53-0.33,14.2,2.2
					c4.66,2.54,8.2,6.34,10.6,11.4c3.2,6.67,8.46,12.8,15.8,18.4c7.33,5.6,16.2,10.14,26.6,13.6c10.4,3.47,21.33,5.2,32.8,5.2
					c12.8,0,24.6-2,35.4-6c10.8-4,19.53-9.8,26.2-17.4c6.66-7.6,10-17,10-28.2c0-14.13-5.54-26.8-16.6-38
					c-11.07-11.2-29.27-18.13-54.6-20.8c-33.07-3.2-59.07-12.93-78-29.2c-18.94-16.26-28.4-36.4-28.4-60.4
					c0-17.6,4.93-32.53,14.8-44.8c9.86-12.26,23.26-21.6,40.2-28c16.93-6.4,35.8-9.6,56.6-9.6c16.26,0,30.46,2.27,42.6,6.8
					c12.13,4.54,22.73,10.8,31.8,18.8c9.06,8,16.93,17.47,23.6,28.4c3.73,5.87,5.26,11.4,4.6,16.6c-0.67,5.2-3.27,9.27-7.8,12.2
					c-5.07,3.2-10.54,3.87-16.4,2c-5.87-1.86-10.27-5.33-13.2-10.4c-4.27-7.73-9.47-14.26-15.6-19.6c-6.14-5.33-13.34-9.53-21.6-12.6
					c-8.27-3.06-18-4.6-29.2-4.6c-19.74-0.26-36.27,3.4-49.6,11c-13.34,7.6-20,19.27-20,35c0,8,2.06,15.67,6.2,23
					c4.13,7.34,11.73,13.67,22.8,19c11.06,5.34,27,9.07,47.8,11.2c31.73,3.2,56.46,12.87,74.2,29c17.73,16.14,26.6,37.4,26.6,63.8
					c0,15.2-3.14,28.4-9.4,39.6c-6.27,11.2-14.67,20.6-25.2,28.2c-10.54,7.6-22.54,13.27-36,17
					C1649.31,871.5,1635.38,873.37,1620.98,873.37z"/>
			</g>
		</g>
	</g>
	<g id="svg-object-cloud">
		<path class="svg-color-blue" d="M556.86,519.16H520.7c-11.05,0-20-8.95-20-20c0-11.05,8.95-20,20-20h36.16c43.51,0,78.91-35.4,78.91-78.91
			s-35.4-78.91-78.91-78.91c-6.83,0-13.61,0.87-20.16,2.6c-5.86,1.54-12.1,0.35-16.97-3.25c-4.87-3.6-7.85-9.21-8.1-15.26
			c-1.48-35.62-16.47-68.88-42.23-93.65c-25.83-24.84-59.79-38.52-95.64-38.52c-63.32,0-118.34,42.81-133.8,104.12
			c-2.58,10.21-12.63,16.68-23,14.78c-5.62-1.03-11.38-1.55-17.12-1.55c-51.99,0-94.28,42.29-94.28,94.28
			c0,51.99,42.29,94.28,94.28,94.28h27.27c11.05,0,20,8.95,20,20c0,11.05-8.95,20-20,20h-27.27c-74.04,0-134.28-60.24-134.28-134.28
			c0-74.04,60.24-134.28,134.28-134.28c2.15,0,4.31,0.05,6.46,0.16c25.18-69.99,91.72-117.5,167.45-117.5
			c46.24,0,90.05,17.65,123.37,49.69c27.8,26.74,45.89,61.17,52.16,98.63c2.52-0.16,5.05-0.24,7.58-0.24
			c65.57,0,118.91,53.34,118.91,118.91C675.77,465.82,622.42,519.16,556.86,519.16z"/>
	</g>
	<g id="svg-object-arrow-down">
		<path class="svg-color-blue" d="M476.62,541.54c-6.83-6.84-17.91-6.83-24.75,0l-11.32,11.32v-83.34c0-9.67-7.83-17.5-17.5-17.5
			c-9.67,0-17.5,7.83-17.5,17.5v85.06l-11.32-11.32c-6.83-6.83-17.91-6.83-24.75,0c-6.83,6.83-6.83,17.92,0,24.75l40.34,40.34
			c3.42,3.42,7.9,5.13,12.37,5.13c4.48,0,8.96-1.71,12.37-5.13l42.06-42.06C483.46,559.45,483.46,548.37,476.62,541.54z"/>
	</g>
	<g id="svg-object-arrow-up">
		<path class="svg-color-blue" d="M372.54,427.3l-40.34-40.34c-3.28-3.28-7.73-5.13-12.37-5.13c-4.64,0-9.09,1.84-12.37,5.13l-42.06,42.06
			c-6.83,6.83-6.83,17.91,0,24.75c3.42,3.42,7.9,5.13,12.37,5.13c4.48,0,8.96-1.71,12.37-5.13l11.32-11.32v83.34
			c0,9.67,7.83,17.5,17.5,17.5s17.5-7.83,17.5-17.5v-85.06l11.32,11.32c6.83,6.83,17.91,6.83,24.75,0
			C379.38,445.22,379.38,434.14,372.54,427.3z"/>
	</g>
</svg>
